Coordinates
version=1
nRows=17
nColumns=24
inDegrees=yes

Units are S.I. units (second, meters, Newtons, ...)
Angles are in degrees.

endheader
time	pelvis_tilt	pelvis_list	pelvis_rotation	pelvis_tx	pelvis_ty	pelvis_tz	hip_flexion_r	hip_adduction_r	hip_rotation_r	knee_angle_r	ankle_angle_r	subtalar_angle_r	mtp_angle_r	hip_flexion_l	hip_adduction_l	hip_rotation_l	knee_angle_l	ankle_angle_l	subtalar_angle_l	mtp_angle_l	lumbar_extension	lumbar_bending	lumbar_rotation
      0.57900000	      0.69177424	      6.66690872	     -5.37714028	     -0.78668349	      0.97953610	      0.31101865	     23.99874144	     -4.89965525	      1.02256568	      0.11575103	     -0.03662511	     -1.55591920	      9.97606298	    -19.99856907	     12.60548614	      6.83175876	     -0.41048355	     10.49413084	    -14.61075817	     -2.63110805	    -12.03550008	      0.77781119	     -8.77112883
      0.58316667	      0.62258059	      6.54436741	     -5.37758279	     -0.78101896	      0.97880379	      0.31141888	     24.09086216	     -4.70576336	      1.20659973	     -0.20675168	     -0.13157341	     -1.50976713	     10.00633100	    -20.01021814	     12.48378420	      6.63878067	     -0.98611587	     10.78191280	    -14.25091470	     -2.57773121	    -11.95601483	      0.95459471	     -8.75139378
      0.58733333	      0.55810861	      6.38951761	     -5.38457490	     -0.77530533	      0.97813535	      0.31186917	     24.14344294	     -4.47446430	      1.51293658	     -0.53485518	     -0.36561604	     -1.76017874	     10.03036969	    -20.02842186	     12.32895483	      6.46197941	     -1.55777784	     11.02136765	    -13.96168260	     -2.51090583	    -11.87851763	      1.16769343	     -8.70432819
      0.59150000	      0.49537728	      6.22199265	     -5.39471925	     -0.76957185	      0.97750576	      0.31233530	     24.21147291	     -4.22939533	      1.81518593	     -0.96337482	     -0.61783733	     -2.01804092	     10.05985487	    -20.02185417	     12.16329760	      6.24412879	     -2.18959940	     11.28303287	    -13.61027415	     -2.41984635	    -11.80752538	      1.39244479	     -8.65252122
      0.59566667	      0.43313708	      6.04361653	     -5.40445553	     -0.76380862	      0.97691379	      0.31281911	     24.29054581	     -3.97307636	      2.11899163	     -1.47502346	     -0.91134149	     -2.32496906	     10.09114734	    -19.99629992	     11.98649157	      6.00826613	     -2.86262496	     11.52349120	    -13.27503037	     -2.30742350	    -11.74076826	      1.62745572	     -8.59883252
      0.59983333	      0.36655931	      5.85629054	     -5.41568625	     -0.75800548	      0.97635970	      0.31331849	     24.38290501	     -3.70598516	      2.41960271	     -2.05567671	     -1.23779219	     -2.66382348	     10.12337472	    -19.95155685	     11.80093778	      5.77651176	     -3.56745465	     11.72884979	    -12.96147793	     -2.17222689	    -11.66631298	      1.87618026	     -8.54009102
      0.60400000	      0.30552039	      5.65370953	     -5.43012751	     -0.75217191	      0.97584535	      0.31384947	     24.47367394	     -3.42048038	      2.72872392	     -2.69237858	     -1.59784112	     -3.05947540	     10.15634121	    -19.89358402	     11.59957917	      5.51422024	     -4.31483303	     11.92551896	    -12.62485665	     -2.00664841	    -11.59784600	      2.13911792	     -8.46899534
      0.60816667	      0.27490835	      5.43035866	     -5.44804388	     -0.74629680	      0.97541370	      0.31439115	     24.53598129	     -3.11712556	      3.01056749	     -3.37968882	     -1.96952816	     -3.45790164	     10.21995756	    -19.84996286	     11.37796905	      5.19537344	     -5.09838433	     12.13571388	    -12.20803961	     -1.66312645	    -11.56620126	      2.43505792	     -8.40494450
      0.61233333	      0.17141178	      5.24880995	     -5.45872705	     -0.74040403	      0.97491612	      0.31492456	     24.71247601	     -2.84749494	      3.28720441	     -4.15861875	     -2.36490137	     -3.88999376	     10.24212070	    -19.72039937	     11.19854658	      5.01225417	     -5.88628681	     12.18119555	    -12.05874254	     -1.48392346	    -11.42675983	      2.67976662	     -8.32721912
      0.61650000	      0.10570337	      5.02912380	     -5.47555583	     -0.73446419	      0.97450023	      0.31549320	     24.83537030	     -2.53982347	      3.55376981	     -4.94804316	     -2.77639309	     -4.37684545	     10.26487202	    -19.60213097	     10.98061976	      4.72978323	     -6.75018033	     12.27920644	    -11.76289980	     -1.24306034	    -11.33951685	      2.96644981	     -8.25237084
      0.62066667	      0.03837391	      4.81420777	     -5.48959463	     -0.72849988	      0.97412298	      0.31607379	     24.97705547	     -2.23711057	      3.78771188	     -5.79443613	     -3.16939628	     -4.83338392	     10.28251791	    -19.46928803	     10.76517887	      4.46378026	     -7.62944858	     12.31201749	    -11.51347325	     -0.97629478	    -11.25682592	      3.24443317	     -8.17466827
      0.62483333	     -0.01759867	      4.58978977	     -5.49732443	     -0.72251510	      0.97379214	      0.31665774	     25.10473654	     -1.92835956	      4.00150369	     -6.65707788	     -3.55568898	     -5.31302182	     10.29536593	    -19.32355684	     10.53807674	      4.19284545	     -8.56678964	     12.31116711	    -11.26520658	     -0.65272895	    -11.19249420	      3.52892737	     -8.10004887
      0.62900000	     -0.07275759	      4.36800332	     -5.50919006	     -0.71648871	      0.97350237	      0.31725710	     25.23792545	     -1.62041683	      4.19867928	     -7.55040932	     -3.91225379	     -5.79570802	     10.30132356	    -19.16274768	     10.31393969	      3.91413625	     -9.52293795	     12.25840783	    -11.04398272	     -0.26381317	    -11.10904445	      3.81812043	     -8.02071824
      0.63316667	     -0.13194623	      4.14438715	     -5.51694256	     -0.71044679	      0.97323599	      0.31785495	     25.38174729	     -1.31205334	      4.36798292	     -8.47201035	     -4.22431901	     -6.26028159	     10.29848541	    -18.97487955	     10.08686534	      3.64827987	    -10.52786071	     12.14907147	    -10.86513951	      0.16105194	    -11.02638138	      4.11060517	     -7.94723490
      0.63733333	     -0.13232247	      3.89043138	     -5.52539376	     -0.70436734	      0.97308422	      0.31846372	     25.45481357	     -0.98190253	      4.49584094	     -9.40414618	     -4.43136288	     -6.66460518	     10.21874066	    -18.83732853	      9.82677183	      3.34395655	    -11.54562682	     11.89268144	    -10.74061928	      5.40939104	    -11.02785855	      4.43434596	     -7.85421496
      0.64150000	     -0.18344593	      3.66103421	     -5.52635565	     -0.69825590	      0.97291693	      0.31905065	     25.58963708	     -0.67447207	      4.61181827	    -10.36055088	     -4.59562881	     -7.05332559	     10.20779787	    -18.63529669	      9.59664128	      3.14836129	    -12.57734720	     11.58473373	    -10.75789240	      5.44697603	    -10.94892403	      4.74696144	     -7.80558908
      0.64566667	     -0.23272952	      3.44911815	     -5.50828438	     -0.69218453	      0.97278735	      0.31964478	     25.72047115	     -0.39013419	      4.70963498	    -11.30970609	     -4.77896253	     -7.49178793	     10.18266027	    -18.37215820	      9.36692610	      2.89048083	    -13.72832452	     11.32357921	    -10.60275678	      5.57350309	    -10.87376835	      5.00735295	     -7.74566513
